<?xml version="1.0" encoding="UTF-8" standalone="no"?>
<svg
   xmlns:dc="http://purl.org/dc/elements/1.1/"
   xmlns:cc="http://creativecommons.org/ns#"
   xmlns:rdf="http://www.w3.org/1999/02/22-rdf-syntax-ns#"
   xmlns:svg="http://www.w3.org/2000/svg"
   xmlns="http://www.w3.org/2000/svg"
   xmlns:sodipodi="http://sodipodi.sourceforge.net/DTD/sodipodi-0.dtd"
   xmlns:inkscape="http://www.inkscape.org/namespaces/inkscape"
   width="100"
   height="100"
   viewBox="0 0 10000 10000"
   version="1.1"
   id="svg30"
   sodipodi:docname="fashino.svg"
   inkscape:version="0.92.3 (2405546, 2018-03-11)">
  <metadata
     id="metadata36">
    <rdf:RDF>
      <cc:Work
         rdf:about="">
        <dc:format>image/svg+xml</dc:format>
        <dc:type
           rdf:resource="http://purl.org/dc/dcmitype/StillImage" />
        <dc:title>SVG Logo</dc:title>
        <dc:rights>
          <cc:Agent>
            <dc:title>licensed under the Creative Commons Attribution 2.5</dc:title>
          </cc:Agent>
        </dc:rights>
        <dc:description>Official variant of the logo for the SVG (Scalable Vector Graphics) file format standard</dc:description>
        <dc:date>2006</dc:date>
        <dc:source>W3C SVG Working Group</dc:source>
        <dc:creator>
          <cc:Agent>
            <dc:title>Harvey Rayner</dc:title>
          </cc:Agent>
        </dc:creator>
        <dc:publisher>
          <cc:Agent>
            <dc:title>wikipedia</dc:title>
          </cc:Agent>
        </dc:publisher>
        <cc:license
           rdf:resource="http://creativecommons.org/licenses/by/4.0/" />
        <dc:contributor>
          <cc:Agent>
            <dc:title>Nico Düsing
Fuebar
Alexis Jazz
Perhelion
Gnash
Ushakaron
Dvorapa
GXXF</dc:title>
          </cc:Agent>
        </dc:contributor>
      </cc:Work>
      <cc:License
         rdf:about="http://creativecommons.org/licenses/by/4.0/">
        <cc:permits
           rdf:resource="http://creativecommons.org/ns#Reproduction" />
        <cc:permits
           rdf:resource="http://creativecommons.org/ns#Distribution" />
        <cc:requires
           rdf:resource="http://creativecommons.org/ns#Notice" />
        <cc:requires
           rdf:resource="http://creativecommons.org/ns#Attribution" />
        <cc:permits
           rdf:resource="http://creativecommons.org/ns#DerivativeWorks" />
      </cc:License>
    </rdf:RDF>
  </metadata>
  <defs
     id="defs34" />
  <sodipodi:namedview
     pagecolor="#ffffff"
     bordercolor="#666666"
     borderopacity="1"
     objecttolerance="10000"
     gridtolerance="10000"
     guidetolerance="10000"
     inkscape:pageopacity="0"
     inkscape:pageshadow="2"
     inkscape:window-width="1366"
     inkscape:window-height="708"
     id="namedview32"
     showgrid="true"
     inkscape:zoom="5.2431357"
     inkscape:cx="38.643267"
     inkscape:cy="45.60932"
     inkscape:window-x="0"
     inkscape:window-y="31"
     inkscape:window-maximized="1"
     inkscape:current-layer="svg30"
     showborder="true"
     units="px"
     showguides="false">
    <inkscape:grid
       type="xygrid"
       id="grid836"
       empspacing="10"
       spacingx="1000"
       spacingy="1000" />
  </sodipodi:namedview>
  <title
     id="title2">SVG Logo</title>
  <path
     style="opacity:1;fill:#ff0000;fill-opacity:1;fill-rule:nonzero;stroke:#000000;stroke-width:10;stroke-linecap:round;stroke-linejoin:round;stroke-miterlimit:4;stroke-dasharray:none;stroke-dashoffset:0;stroke-opacity:1;paint-order:stroke fill markers"
     d="M 20 20 L 20 80 L 80 80 L 80 20 L 20 20 z M 50 40 A 10 10 0 0 1 60 50 A 10 10 0 0 1 50 60 A 10 10 0 0 1 40 50 A 10 10 0 0 1 50 40 z "
     id="rect904"
     transform="scale(100)" />
  <path
     style="opacity:1;fill:#00ff00;fill-opacity:1;fill-rule:nonzero;stroke:#000000;stroke-width:10;stroke-linecap:round;stroke-linejoin:round;stroke-miterlimit:4;stroke-dasharray:none;stroke-dashoffset:0;stroke-opacity:1;paint-order:stroke fill markers"
     d="M 50 10 L 10 50 L 50 90 L 90 50 L 50 10 z M 50 30 A 20 20 0 0 1 70 50 A 20 20 0 0 1 50 70 A 20 20 0 0 1 30 50 A 20 20 0 0 1 50 30 z "
     transform="scale(100)"
     id="path906" />
  <path
     style="opacity:1;fill:#0000ff;fill-opacity:1;fill-rule:nonzero;stroke:#000000;stroke-width:10;stroke-linecap:round;stroke-linejoin:round;stroke-miterlimit:4;stroke-dasharray:none;stroke-dashoffset:0;stroke-opacity:1;paint-order:stroke fill markers"
     d="M 30 30 L 30 50 A 20 20 0 0 1 50 30 L 30 30 z M 50 30 A 20 20 0 0 1 70 50 L 70 30 L 50 30 z M 70 50 A 20 20 0 0 1 50 70 L 70 70 L 70 50 z M 50 70 A 20 20 0 0 1 30 50 L 30 70 L 50 70 z "
     transform="scale(100)"
     id="rect908" />
</svg>
