<?xml version="1.0" encoding="UTF-8" standalone="no"?>
<!-- Created with Inkscape (http://www.inkscape.org/) -->

<svg
   xmlns:dc="http://purl.org/dc/elements/1.1/"
   xmlns:cc="http://creativecommons.org/ns#"
   xmlns:rdf="http://www.w3.org/1999/02/22-rdf-syntax-ns#"
   xmlns:svg="http://www.w3.org/2000/svg"
   xmlns="http://www.w3.org/2000/svg"
   xmlns:sodipodi="http://sodipodi.sourceforge.net/DTD/sodipodi-0.dtd"
   xmlns:inkscape="http://www.inkscape.org/namespaces/inkscape"
   version="1.1"
   width="100"
   height="100"
   id="svg29691"
   inkscape:version="0.92.3 (2405546, 2018-03-11)"
   sodipodi:docname="network.svg"
   viewBox="0 0 100 100">
  <title
     id="title3398">Network Icon</title>
  <sodipodi:namedview
     pagecolor="#ffffff"
     bordercolor="#666666"
     borderopacity="1"
     objecttolerance="10"
     gridtolerance="10"
     guidetolerance="10"
     inkscape:pageopacity="0"
     inkscape:pageshadow="2"
     inkscape:window-width="1366"
     inkscape:window-height="708"
     id="namedview3451"
     showgrid="false"
     inkscape:zoom="1.4142136"
     inkscape:cx="30.887125"
     inkscape:cy="20.584444"
     inkscape:window-x="0"
     inkscape:window-y="31"
     inkscape:window-maximized="1"
     inkscape:current-layer="svg29691"
     showguides="false"
     fit-margin-top="0"
     fit-margin-left="0"
     fit-margin-right="0"
     fit-margin-bottom="0"
     scale-x="2"
     viewbox-height="100"
     viewbox-width="100"
     viewbox-x="0" />
  <defs
     id="defs29693" />
  <metadata
     id="metadata29696">
    <rdf:RDF>
      <cc:Work
         rdf:about="">
        <dc:format>image/svg+xml</dc:format>
        <dc:type
           rdf:resource="http://purl.org/dc/dcmitype/StillImage" />
        <dc:title>Network Icon</dc:title>
        <cc:license
           rdf:resource="http://creativecommons.org/publicdomain/zero/1.0/" />
        <dc:date>2015-03-13</dc:date>
        <dc:creator>
          <cc:Agent>
            <dc:title>Urs Roesch</dc:title>
          </cc:Agent>
        </dc:creator>
        <dc:publisher>
          <cc:Agent>
            <dc:title>OpenClipart</dc:title>
          </cc:Agent>
        </dc:publisher>
        <dc:subject>
          <rdf:Bag>
            <rdf:li>IPv6</rdf:li>
            <rdf:li>IPv4</rdf:li>
            <rdf:li>Network Logo</rdf:li>
            <rdf:li>black &amp; white</rdf:li>
            <rdf:li>icon</rdf:li>
            <rdf:li>flying packets</rdf:li>
            <rdf:li>packets</rdf:li>
            <rdf:li>network lines</rdf:li>
          </rdf:Bag>
        </dc:subject>
        <dc:description>Network icon representing a globe with connection and moving packets. Initially used for IPv6 presentation. </dc:description>
      </cc:Work>
      <cc:License
         rdf:about="http://creativecommons.org/publicdomain/zero/1.0/">
        <cc:permits
           rdf:resource="http://creativecommons.org/ns#Reproduction" />
        <cc:permits
           rdf:resource="http://creativecommons.org/ns#Distribution" />
        <cc:permits
           rdf:resource="http://creativecommons.org/ns#DerivativeWorks" />
      </cc:License>
    </rdf:RDF>
  </metadata>
  <path
     style="font-style:normal;font-variant:normal;font-weight:normal;font-stretch:condensed;font-size:medium;line-height:125%;font-family:Impact;-inkscape-font-specification:'Impact Condensed';letter-spacing:0px;word-spacing:0px;fill:#000000;fill-opacity:1;stroke:none;stroke-width:0.18042536px;stroke-linecap:butt;stroke-linejoin:miter;stroke-opacity:1"
     d="M 50.003872,0.046243 A 49.998785,49.979419 0 0 0 0.0050866,50.025662 49.998785,49.979419 0 0 0 50.003872,100.00508 49.998785,49.979419 0 0 0 100.00266,50.025662 49.998785,49.979419 0 0 0 50.003872,0.046243 Z m -0.498378,9.4091832 c -5.326673,2.1407268 -10.28647,5.0036698 -14.751222,8.4748318 0.551813,-2.134361 1.236183,-4.214859 2.041458,-6.234041 A 40.603571,40.587843 0 0 1 49.505494,9.4554262 Z m 8.650816,0.8135228 a 40.603571,40.587843 0 0 0 3.61e-4,0 40.603571,40.587843 0 0 1 7.047468,2.149893 c -1.466628,1.248249 -2.891373,2.55516 -4.263375,3.926651 -4.678643,4.676819 -8.650421,9.927801 -11.850815,15.585802 a 4.8642709,4.8623869 0 0 0 -0.402512,-0.02043 4.8642709,4.8623869 0 0 0 -4.864673,4.862442 4.8642709,4.8623869 0 0 0 1.306928,3.310091 c -1.566068,3.812463 -2.809573,7.757781 -3.7086,11.795153 -1.634651,-0.540757 -3.23317,-1.159892 -4.791716,-1.85288 -1.111745,-2.860378 -1.977785,-5.843694 -2.575788,-8.922994 a 4.8642709,4.8623869 0 0 0 2.650864,-4.32937 4.8642709,4.8623869 0 0 0 -3.601806,-4.68979 c -0.0064,-0.336067 -0.01197,-0.672513 -0.01197,-1.010115 0,-2.634565 0.196699,-5.222373 0.572045,-7.751861 6.872114,-6.180121 15.240178,-10.725022 24.49361,-13.052581 z m -25.657087,3.176207 c -0.882594,2.644578 -1.584491,5.371342 -2.064368,8.175007 -4.68648,4.392522 -8.682189,9.512922 -11.806403,15.179562 -1.616753,-1.833435 -3.100867,-3.78515 -4.450885,-5.833448 A 40.603571,40.587843 0 0 1 32.499223,13.445156 Z m 36.198506,0.588037 A 40.603571,40.587843 0 0 1 90.054432,43.43894 c -1.445975,1.128938 -2.953431,2.182939 -4.514681,3.158599 a 4.8642709,4.8623869 0 0 0 -3.158758,-1.166547 4.8642709,4.8623869 0 0 0 -4.863971,4.86208 4.8642709,4.8623869 0 0 0 0.01868,0.396011 c -6.062184,2.466497 -12.690523,3.83189 -19.646205,3.83189 -4.540703,0 -8.945156,-0.577665 -13.144701,-1.662281 0.843149,-3.848449 2.014908,-7.609679 3.49395,-11.245501 a 4.8642709,4.8623869 0 0 0 0.448683,0.02255 4.8642709,4.8623869 0 0 0 4.863971,-4.862443 4.8642709,4.8623869 0 0 0 -1.338297,-3.345683 c 3.02768,-5.310531 6.772199,-10.240654 11.171974,-14.638735 1.690344,-1.689679 3.473737,-3.262937 5.312652,-4.755686 z m 0.599891,5.631555 c -1.655464,0 -3.119023,0.263713 -4.390615,0.791319 -1.259589,0.515664 -2.255349,1.295132 -2.987111,2.338384 -0.731765,1.043269 -1.15173,2.152544 -1.259698,3.327713 -0.09597,1.163157 -0.143804,3.477384 -0.143804,6.942921 v 4.029181 c 0,3.213728 0.05381,5.378141 0.16178,6.493351 0.119964,1.11521 0.516008,2.182311 1.187796,3.201588 0.683779,1.007282 1.649288,1.780797 2.896881,2.320399 1.247601,0.539618 2.849038,0.809646 4.804403,0.809646 1.571494,0 2.94536,-0.233804 4.12098,-0.701468 1.187617,-0.46768 2.117242,-1.121306 2.789027,-1.960698 0.683777,-0.851407 1.10375,-1.774681 1.259699,-2.769986 0.155948,-0.995286 0.233682,-2.512062 0.233682,-4.550618 v -2.320416 c 0,-1.714792 -0.137877,-3.076163 -0.41379,-4.083444 -0.27591,-1.007264 -0.923801,-1.870449 -1.943472,-2.589937 -1.019674,-0.719505 -2.19516,-1.079185 -3.526731,-1.079185 -1.055658,0 -1.943432,0.19796 -2.6632,0.593681 -0.719767,0.383728 -1.265652,0.965251 -1.637536,1.744702 v -4.640815 c 0,-1.091235 0.01794,-1.816568 0.05392,-2.176317 0.03599,-0.359737 0.173872,-0.653664 0.413789,-0.881516 0.239927,-0.227814 0.54594,-0.341749 0.917812,-0.341749 0.443867,0 0.791722,0.119888 1.043637,0.359717 0.263916,0.239812 0.408128,0.539746 0.432119,0.89948 0.03599,0.347774 0.05392,1.198946 0.05392,2.554002 h 7.269518 c 0,-1.822701 -0.281736,-3.333485 -0.845553,-4.53265 -0.563818,-1.199127 -1.499775,-2.128408 -2.807357,-2.787952 -1.307576,-0.659526 -2.980768,-0.989333 -5.02011,-0.989333 z m -39.527506,7.504871 c -0.08944,1.289846 -0.136051,2.591363 -0.136051,3.903774 0,0.45417 0.0075,0.906624 0.01833,1.358215 a 4.8642709,4.8623869 0 0 0 -2.676237,4.34169 4.8642709,4.8623869 0 0 0 3.631057,4.697203 c 0.407444,2.153466 0.937115,4.264159 1.584669,6.322829 -4.058787,-2.290363 -7.780162,-5.106149 -11.071876,-8.35644 2.347892,-4.466666 5.26239,-8.587469 8.650112,-12.267271 z m 38.182865,6.234401 h 4.586933 v 9.067431 h 0.98619 v 2.365516 h -0.98619 v 2.442322 h -3.463639 v -2.442322 h -4.115341 v -2.365516 z m -55.472516,1.158792 c 1.377249,1.927795 2.866727,3.770088 4.472387,5.504722 -3.105642,6.533866 -5.087449,13.703141 -5.695428,21.25789 -0.106209,-0.07856 -0.205883,-0.165326 -0.311575,-0.244519 A 40.603571,40.587843 0 0 1 9.400302,50.025662 40.603571,40.587843 0 0 1 12.480463,34.562812 Z m 56.59581,2.003668 -1.52616,5.904971 h 1.52616 z m -49.538118,6.119546 c 4.229388,4.007464 9.086044,7.359496 14.406161,9.894343 1.576979,3.762078 3.554355,7.315011 5.879763,10.605676 -0.09078,1.477325 -0.136755,2.961234 -0.136755,4.44987 0,1.791203 0.06651,3.57541 0.197732,5.349713 -2.622322,-0.359663 -5.192201,-0.881912 -7.700227,-1.555165 a 4.8642709,4.8623869 0 0 0 -4.853045,-4.534077 4.8642709,4.8623869 0 0 0 -3.597926,1.598493 c -3.199211,-1.375982 -6.261285,-3.009147 -9.158361,-4.876168 0.338222,-7.431382 2.078963,-14.494407 4.962658,-20.932685 z m 70.976242,4.713747 a 40.603571,40.587843 0 0 1 0.09305,2.625889 40.603571,40.587843 0 0 1 -0.799384,7.997067 C 85.043591,62.20353 79.639372,65.673718 73.760844,68.267642 a 4.8642709,4.8623869 0 0 0 -3.658902,-1.667564 4.8642709,4.8623869 0 0 0 -4.856568,4.705665 c -3.466919,0.959406 -7.054517,1.630367 -10.736683,1.980414 -4.249936,-3.112203 -8.011965,-6.849333 -11.149769,-11.078515 0.157684,-2.00089 0.401719,-3.987638 0.730652,-5.955697 4.414103,1.124879 9.037461,1.72428 13.799928,1.72428 7.483845,0 14.617679,-1.487229 21.135711,-4.171185 a 4.8642709,4.8623869 0 0 0 3.355785,1.350475 4.8642709,4.8623869 0 0 0 4.864323,-4.862443 4.8642709,4.8623869 0 0 0 -0.05143,-0.668365 c 1.134016,-0.703467 2.24213,-1.444872 3.320546,-2.224934 z m -51.866482,7.163122 c 0.693119,0.255017 1.393918,0.493639 2.099615,0.721562 -0.13925,0.805444 -0.265369,1.613772 -0.377487,2.425061 -0.608687,-1.026892 -1.183302,-2.07597 -1.722128,-3.146623 z m 50.489761,6.111429 a 40.603571,40.587843 0 0 1 -0.343646,1.345893 40.603571,40.587843 0 0 0 0.343646,-1.345893 z m -0.997815,3.137097 A 40.603571,40.587843 0 0 1 74.635649,82.253527 c -5.612423,-1.173402 -10.895086,-3.239235 -15.687712,-6.050834 2.524993,-0.401604 5.00158,-0.948333 7.422842,-1.627735 a 4.8642709,4.8623869 0 0 0 3.731158,1.749641 4.8642709,4.8623869 0 0 0 4.861854,-4.820157 c 4.70204,-2.059121 9.120048,-4.647723 13.17607,-7.693021 z m -44.994537,3.625072 c 1.896611,2.200042 3.963511,4.248843 6.177595,6.129756 -0.27595,0.0036 -0.552189,0.0056 -0.82899,0.0056 -1.720883,0 -3.425373,-0.07028 -5.111045,-0.206112 -0.158017,-1.898755 -0.238971,-3.810171 -0.238971,-5.729868 0,-0.06653 0.0013,-0.13293 0.0014,-0.199423 z m -28.615296,0.201892 c 2.540826,1.525166 5.192939,2.883398 7.940255,4.06196 a 4.8642709,4.8623869 0 0 0 -0.0028,0.05848 4.8642709,4.8623869 0 0 0 4.864322,4.862444 4.8642709,4.8623869 0 0 0 3.842537,-1.890584 c 2.943476,0.797778 5.968051,1.398063 9.058967,1.783827 0.567557,4.600514 1.586736,9.112621 3.005436,13.486637 A 40.603571,40.587843 0 0 1 14.632248,69.855926 c -0.04474,-0.736227 -0.08527,-1.473754 -0.102215,-2.217197 v 0 z m 39.035823,9.196737 c 5.165959,3.600052 10.983287,6.313321 17.218452,8.00764 a 40.603571,40.587843 0 0 1 -20.780431,5.770742 40.603571,40.587843 0 0 1 -2.976536,-0.149039 c -1.539825,-4.396077 -2.637306,-8.953443 -3.264147,-13.605387 1.562713,0.110669 3.140023,0.168069 4.73074,0.168069 1.706512,0 3.397795,-0.06484 5.071922,-0.192025 z"
     id="path4726"
     inkscape:connector-curvature="0" />
</svg>
