<?xml version="1.0" encoding="UTF-8" standalone="no"?>
<svg
   xmlns:dc="http://purl.org/dc/elements/1.1/"
   xmlns:cc="http://creativecommons.org/ns#"
   xmlns:rdf="http://www.w3.org/1999/02/22-rdf-syntax-ns#"
   xmlns:svg="http://www.w3.org/2000/svg"
   xmlns="http://www.w3.org/2000/svg"
   xmlns:sodipodi="http://sodipodi.sourceforge.net/DTD/sodipodi-0.dtd"
   xmlns:inkscape="http://www.inkscape.org/namespaces/inkscape"
   viewBox="-68.6805 -68.6793 233.994 187.479"
   version="1.1"
   id="svg268"
   sodipodi:docname="dose-response.svg"
   inkscape:version="0.92.3 (2405546, 2018-03-11)">
  <metadata
     id="metadata272">
    <rdf:RDF>
      <cc:Work
         rdf:about="">
        <dc:format>image/svg+xml</dc:format>
        <dc:type
           rdf:resource="http://purl.org/dc/dcmitype/StillImage" />
        <dc:title></dc:title>
      </cc:Work>
    </rdf:RDF>
  </metadata>
  <sodipodi:namedview
     pagecolor="#ffffff"
     bordercolor="#666666"
     borderopacity="1"
     objecttolerance="10"
     gridtolerance="10"
     guidetolerance="10"
     inkscape:pageopacity="0"
     inkscape:pageshadow="2"
     inkscape:window-width="1366"
     inkscape:window-height="708"
     id="namedview270"
     showgrid="false"
     inkscape:zoom="2.5176153"
     inkscape:cx="121.05567"
     inkscape:cy="84.941276"
     inkscape:window-x="0"
     inkscape:window-y="31"
     inkscape:window-maximized="1"
     inkscape:current-layer="svg268" />
  <defs
     id="defs95">
    <clipPath
       id="clip1">
      <path
         d="M-29.16 235.348h194.273v-444.915H-29.16"
         id="path2" />
    </clipPath>
    <clipPath
       id="clip2">
      <path
         d="M-170.903 93.586V-67.81h477.754V93.586"
         id="path5" />
    </clipPath>
    <clipPath
       id="clip3">
      <path
         d="M-29.16 235.348h194.273v-444.915H-29.16"
         id="path8" />
    </clipPath>
    <clipPath
       id="clip4">
      <path
         d="M-170.903 93.586V-67.81h477.754V93.586"
         id="path11" />
    </clipPath>
    <clipPath
       id="clip5">
      <path
         d="M-29.16 93.586h194.273V-67.81H-29.16z"
         id="path14" />
    </clipPath>
  </defs>
  <style
     id="style97">text.f0{font-family:cmr10;font-size:9.96264px}text.f1{font-family:cmr7;font-size:6.97385px}</style>
  <rect
     style="opacity:1;fill:#feffff;fill-opacity:0.78431373;fill-rule:nonzero;stroke:#000000;stroke-width:0;stroke-linecap:round;stroke-linejoin:round;stroke-miterlimit:4;stroke-dasharray:none;stroke-opacity:1;paint-order:normal"
     id="rect1163"
     width="238.71797"
     height="191.45103"
     x="-70.666512"
     y="-71.062508" />
  <path
     style="fill:none;stroke:#d9d9d9;stroke-width:0.40000001;stroke-miterlimit:10.0369997;stroke-dasharray:2.98883, 2.98883"
     inkscape:connector-curvature="0"
     id="path99"
     stroke-miterlimit="10.037"
     d="M 9.691,93.586 V -67.809 M 48.547,93.586 V -67.809 M 87.402,93.586 V -67.809 M 126.257,93.586 V -67.809 M 165.113,93.586 V -67.809"
     clip-path="url(#clip1)"
     transform="translate(-7.9440256,12.710441)" />
  <path
     style="fill:none;stroke:#d9d9d9;stroke-width:0.40000001;stroke-miterlimit:10.0369997;stroke-dasharray:2.98883, 2.98883"
     inkscape:connector-curvature="0"
     id="path101"
     stroke-miterlimit="10.037"
     d="M -29.16,61.941 H 165.113 M -29.16,30.293 H 165.113 M -29.16,-1.352 H 165.113 M -29.16,-32.996 H 165.113 M -29.16,-64.645 h 194.273"
     clip-path="url(#clip2)"
     transform="translate(-7.9440256,12.710441)" />
  <path
     style="fill:none;stroke:#808080;stroke-width:0.2;stroke-miterlimit:10.0369997"
     inkscape:connector-curvature="0"
     id="path103"
     stroke-miterlimit="10.037"
     d="m 9.691,97.84 v -4.254 m 38.856,4.254 v -4.254 m 38.855,4.254 v -4.254 m 38.855,4.254 v -4.254 m 38.856,4.254 v -4.254"
     clip-path="url(#clip3)"
     transform="translate(-7.9440256,12.710441)" />
  <path
     style="fill:none;stroke:#808080;stroke-width:0.2;stroke-miterlimit:10.0369997"
     inkscape:connector-curvature="0"
     id="path105"
     stroke-miterlimit="10.037"
     d="m -33.414,61.941 h 4.254 m -4.254,-31.648 h 4.254 m -4.254,-31.645 h 4.254 m -4.254,-31.644 h 4.254 m -4.254,-31.649 h 4.254"
     clip-path="url(#clip4)"
     transform="translate(-7.9440256,12.710441)" />
  <path
     style="fill:none;stroke:#000000;stroke-width:0.40000001;stroke-miterlimit:10.0369997"
     inkscape:connector-curvature="0"
     id="path107"
     stroke-miterlimit="10.037"
     d="M -37.104026,106.29644 H 155.17597" />
  <path
     inkscape:connector-curvature="0"
     id="path109"
     d="m 157.16997,106.29644 -3.188,-1.594 1.195,1.594 -1.195,1.594" />
  <path
     style="fill:none;stroke:#000000;stroke-width:0.40000001;stroke-miterlimit:10.0369997"
     inkscape:connector-curvature="0"
     id="path111"
     stroke-miterlimit="10.037"
     d="M -37.104026,106.29644 V -53.106559" />
  <path
     inkscape:connector-curvature="0"
     id="path113"
     d="m -37.104026,-55.098559 -1.594,3.188 1.594,-1.195 1.594,1.195" />
  <text
     style="font-size:9.96263981px;font-family:cmr10"
     id="text117"
     y="77.861443"
     x="-54.840027"
     class="f0">2<tspan
   id="tspan115"
   x="-49.859028">0</tspan>
</text>
  <text
     style="font-size:9.96263981px;font-family:cmr10"
     id="text121"
     y="46.214443"
     x="-54.840027"
     class="f0">4<tspan
   id="tspan119"
   x="-49.859028">0</tspan>
</text>
  <text
     style="font-size:9.96263981px;font-family:cmr10"
     id="text125"
     y="14.568441"
     x="-54.840027"
     class="f0">6<tspan
   id="tspan123"
   x="-49.859028">0</tspan>
</text>
  <text
     style="font-size:9.96263981px;font-family:cmr10"
     id="text129"
     y="-17.077557"
     x="-54.840027"
     class="f0">8<tspan
   id="tspan127"
   x="-49.859028">0</tspan>
</text>
  <text
     style="font-size:9.96263981px;font-family:cmr10"
     id="text135"
     y="-48.723557"
     x="-59.822025"
     class="f0">1<tspan
   id="tspan131"
   x="-54.841026">0</tspan>
<tspan
   id="tspan133"
   x="-49.859028">0</tspan>
</text>
  <path
     style="fill:none;stroke:#0000ff;stroke-width:0.80000001;stroke-miterlimit:10.0369997"
     inkscape:connector-curvature="0"
     id="path137"
     stroke-miterlimit="10.037"
     d="m -29.16,93.586 0.387,-1.543 0.39,-1.566 0.39,-1.536 0.387,-1.539 0.391,-1.52 0.39,-1.5 0.387,-1.488 0.391,-1.472 0.39,-1.457 0.387,-1.438 0.391,-1.425 0.39,-1.41 0.387,-1.41 0.391,-1.376 0.39,-1.375 0.387,-1.363 0.391,-1.328 0.39,-1.344 0.387,-1.316 0.391,-1.297 0.39,-1.297 0.387,-1.281 0.39,-1.27 0.392,-1.25 0.386,-1.234 0.39,-1.235 0.392,-1.218 0.386,-1.203 0.39,-1.188 0.392,-1.184 0.386,-1.156 0.39,-1.156 0.392,-1.156 0.386,-1.121 0.39,-1.125 0.391,-1.121 0.387,-1.098 0.39,-1.09 0.391,-1.078 0.387,-1.059 0.39,-1.062 0.391,-1.043 0.387,-1.043 0.39,-1.012 0.391,-1.031 0.387,-0.996 0.39,-1 0.391,-0.977 0.387,-0.984 0.39,-0.965 0.391,-0.95 0.387,-0.948 0.39,-0.934 0.391,-0.934 0.387,-0.918 0.39,-0.918 0.391,-0.886 0.387,-0.903 0.39,-0.886 0.391,-0.871 0.387,-0.856 0.39,-0.871 0.391,-0.836 0.387,-0.84 0.39,-0.84 0.391,-0.82 0.387,-0.809 0.39,-0.808 0.391,-0.793 0.387,-0.79 0.39,-0.788 0.391,-0.778 0.387,-0.757 0.39,-0.762 L 0.039,9.996 0.426,9.25 0.816,8.523 1.207,7.797 1.594,7.067 1.984,6.355 2.375,5.641 2.762,4.945 3.152,4.25 3.542,3.566 3.93,2.891 4.32,2.207 4.71,1.543 5.098,0.879 l 0.39,-0.648 0.39,-0.653 0.388,-0.629 0.39,-0.652 0.39,-0.617 0.388,-0.618 0.39,-0.613 0.39,-0.617 0.387,-0.601 0.391,-0.602 0.39,-0.59 0.388,-0.582 0.39,-0.586 0.39,-0.57 0.387,-0.57 0.391,-0.555 0.39,-0.555 0.387,-0.55 0.391,-0.559 0.39,-0.536 0.387,-0.523 0.391,-0.539 0.39,-0.52 0.387,-0.523 0.391,-0.508 0.39,-0.504 0.387,-0.508 0.391,-0.503 0.39,-0.493 0.387,-0.492 0.39,-0.472 0.392,-0.493 0.386,-0.472 0.39,-0.46 0.392,-0.478 0.386,-0.457 0.39,-0.445 0.392,-0.457 0.386,-0.442 0.39,-0.445 0.392,-0.445 0.386,-0.426 0.39,-0.426 0.391,-0.429 0.387,-0.426 0.39,-0.41 0.391,-0.41 0.387,-0.415 0.39,-0.394 0.391,-0.414 0.387,-0.395 0.39,-0.379 0.391,-0.394 0.387,-0.383 0.39,-0.379 0.391,-0.379 0.387,-0.363 0.39,-0.379 0.391,-0.367 0.387,-0.363 0.39,-0.348 0.391,-0.363 0.387,-0.348 0.39,-0.348 0.391,-0.347 0.387,-0.332 0.39,-0.352 0.391,-0.332 0.387,-0.316 0.39,-0.332 0.391,-0.332 0.387,-0.317 0.39,-0.32 0.391,-0.313 0.387,-0.3 0.39,-0.317 0.391,-0.3 0.387,-0.3 0.39,-0.302 0.391,-0.305 0.387,-0.28 0.39,-0.302 0.391,-0.285 0.387,-0.285 0.39,-0.285 0.391,-0.27 0.387,-0.285 0.39,-0.27 0.391,-0.265 0.387,-0.27 0.39,-0.269 0.39,-0.254 0.388,-0.27 0.39,-0.25 0.39,-0.254 0.388,-0.254 0.39,-0.253 0.39,-0.239 0.388,-0.254 0.39,-0.238 0.39,-0.234 0.388,-0.239 0.39,-0.238 0.39,-0.238 0.388,-0.235 0.39,-0.222 0.39,-0.223 0.388,-0.223 0.39,-0.218 0.39,-0.223 0.388,-0.223 0.39,-0.203 0.39,-0.222 0.387,-0.207 0.391,-0.204 0.39,-0.207 0.387,-0.207 0.391,-0.207 0.39,-0.203 0.387,-0.19 0.391,-0.208 0.39,-0.188 0.387,-0.187 0.391,-0.192 0.39,-0.19 0.387,-0.188 0.39,-0.192 0.392,-0.176 0.386,-0.187 0.39,-0.176 0.392,-0.176 0.386,-0.172 0.39,-0.175 0.392,-0.172 0.386,-0.172 0.39,-0.18 0.392,-0.156 0.386,-0.172 0.39,-0.16 0.391,-0.156 0.387,-0.16 0.39,-0.16 0.391,-0.16 0.387,-0.157 0.39,-0.152 0.391,-0.153 0.387,-0.152 0.39,-0.149 0.391,-0.148 0.387,-0.148 0.39,-0.145 0.391,-0.144 0.387,-0.14 0.39,-0.142 0.391,-0.14 0.387,-0.14 0.39,-0.138 0.391,-0.133 0.387,-0.136 0.39,-0.133 0.391,-0.129 0.387,-0.133 0.39,-0.129 0.391,-0.125 0.387,-0.129 0.39,-0.125 0.391,-0.12 0.387,-0.126 0.39,-0.12 0.391,-0.118 0.386,-0.12 0.391,-0.118 0.391,-0.117 0.386,-0.114 0.391,-0.117 0.391,-0.113 0.386,-0.11 0.391,-0.113 0.391,-0.109 0.386,-0.11 0.391,-0.105 0.391,-0.106 0.386,-0.105 0.391,-0.105 0.391,-0.106 0.386,-0.1 0.391,-0.103 0.391,-0.098 0.386,-0.1 0.391,-0.099 0.39,-0.098 0.387,-0.097 0.391,-0.094 0.39,-0.094 0.387,-0.093 0.391,-0.094 0.39,-0.09 0.387,-0.09 0.391,-0.09 0.39,-0.09 0.387,-0.089 0.391,-0.086 0.39,-0.086 0.387,-0.086 0.391,-0.086 0.39,-0.082 0.387,-0.082 0.391,-0.082 0.39,-0.082 0.387,-0.082 0.391,-0.078 0.39,-0.079 0.387,-0.078 0.391,-0.078 0.39,-0.078 0.387,-0.074 0.391,-0.074 0.39,-0.075 0.387,-0.074 0.391,-0.074 0.39,-0.07 0.387,-0.07 0.391,-0.07 0.39,-0.07 0.387,-0.072 0.39,-0.07 0.391,-0.066 0.387,-0.067 0.39,-0.066 0.391,-0.067 0.387,-0.066 0.39,-0.062 0.391,-0.067 0.387,-0.062 0.39,-0.063 0.391,-0.062 0.387,-0.063 0.39,-0.058 0.391,-0.059 0.387,-0.063 0.39,-0.058 0.391,-0.059 0.387,-0.058 0.39,-0.055 0.391,-0.059 0.387,-0.054 0.39,-0.055 0.391,-0.055 0.387,-0.054 0.39,-0.055 0.391,-0.055 0.387,-0.05 0.39,-0.055 0.391,-0.05 0.387,-0.052 0.39,-0.05 0.391,-0.05 0.387,-0.052 0.39,-0.047 0.391,-0.05 0.386,-0.048 0.391,-0.047 0.391,-0.046 0.386,-0.047 0.391,-0.047 0.391,-0.047 0.386,-0.047 0.391,-0.043 0.391,-0.047 0.386,-0.043 0.391,-0.043 0.391,-0.043 0.386,-0.043 0.391,-0.043 0.391,-0.043 0.386,-0.039 0.391,-0.043 0.391,-0.039 0.386,-0.043 0.391,-0.039 0.391,-0.039 0.386,-0.039 0.391,-0.039 0.391,-0.039 0.386,-0.035 0.391,-0.039 0.39,-0.035 0.387,-0.039 0.391,-0.036 0.39,-0.035 0.387,-0.039 0.391,-0.035 0.39,-0.035 0.387,-0.03 0.391,-0.036 0.39,-0.036 0.387,-0.035 0.391,-0.03 0.39,-0.036 0.387,-0.03 0.391,-0.033 0.39,-0.03 0.387,-0.032 0.391,-0.035 0.39,-0.028 0.387,-0.03 0.391,-0.032 0.39,-0.03 0.387,-0.029 0.391,-0.03 0.39,-0.032 0.387,-0.028 0.391,-0.027 0.39,-0.03 0.387,-0.029 0.391,-0.027 0.39,-0.027 0.387,-0.028 0.391,-0.027 0.39,-0.027 0.387,-0.024 0.39,-0.027 0.391,-0.027 0.387,-0.024 0.39,-0.027 0.391,-0.024 0.387,-0.027 0.39,-0.023 0.391,-0.024 0.387,-0.023 0.39,-0.028 0.391,-0.023 0.387,-0.024 0.39,-0.023 0.391,-0.019 0.387,-0.024 0.39,-0.023 0.391,-0.024 0.387,-0.019 0.39,-0.024 0.391,-0.023 0.387,-0.02 0.39,-0.019 0.391,-0.024 0.387,-0.019 0.39,-0.02 0.391,-0.023 0.387,-0.02 0.39,-0.019 0.391,-0.02 0.387,-0.019 0.39,-0.02 0.391,-0.019 0.387,-0.02 0.39,-0.019 0.391,-0.016 0.386,-0.02 0.391,-0.019 0.391,-0.016 0.386,-0.019 0.391,-0.016 0.391,-0.019 0.386,-0.016 0.391,-0.02 0.391,-0.015 0.386,-0.016 0.391,-0.019 0.391,-0.016 0.386,-0.016 0.391,-0.015 0.391,-0.016 0.386,-0.016 0.391,-0.019 0.391,-0.012 0.386,-0.015 0.391,-0.016 0.391,-0.016 0.386,-0.015 0.391,-0.016 0.391,-0.016 0.386,-0.01 0.391,-0.017 0.39,-0.015 0.387,-0.012 0.391,-0.016 0.39,-0.012 0.387,-0.015 0.391,-0.012 0.39,-0.016 0.387,-0.01 0.391,-0.013 0.39,-0.016 0.387,-0.01 0.391,-0.013 0.39,-0.016 0.387,-0.01 0.391,-0.013 0.39,-0.012 0.387,-0.012 0.391,-0.01 0.39,-0.013 0.387,-0.012 0.391,-0.01 0.39,-0.013 0.387,-0.012 0.391,-0.012 0.39,-0.01 0.387,-0.013 0.391,-0.008 0.39,-0.012 0.387,-0.01"
     clip-path="url(#clip5)"
     transform="translate(-7.9440256,12.710441)" />
  <path
     style="fill:#0000ff"
     inkscape:connector-curvature="0"
     id="path139"
     d="M 0.762,13.477 Z"
     clip-path="url(#clip5)"
     transform="translate(-7.9440256,12.710441)" />
</svg>
